<?xml version="1.0" encoding="UTF-8"?>
<svg version="1.1" xmlns="http://www.w3.org/2000/svg" width="1364" height="360">
<path d="M0 0 C119.46 0 238.92 0 362 0 C362 118.47 362 236.94 362 359 C690.35 359 1018.7 359 1357 359 C1357 359.33 1357 359.66 1357 360 C906.88 360 456.76 360 -7 360 C-7 359.67 -7 359.34 -7 359 C-4.69 359 -2.38 359 0 359 C0 240.53 0 122.06 0 0 Z " fill="#0F82FC" transform="translate(7,0)"/>
<path d="M0 0 C1.94712891 -0.0309375 1.94712891 -0.0309375 3.93359375 -0.0625 C18.72271069 -0.12280221 18.72271069 -0.12280221 24.38598633 4.62011719 C28.9363393 9.38831 31.234107 15.22257771 33.6875 21.25 C34.48587212 23.16767142 35.28670245 25.08432107 36.08984375 27 C36.51031982 28.00353516 36.9307959 29.00707031 37.36401367 30.04101562 C39.13721398 34.14651938 41.03288536 38.19006867 42.93753052 42.23547363 C47.53846534 52.0246182 51.91516556 61.91660946 56.30834961 71.80029297 C56.67919174 72.63448761 57.05003387 73.46868225 57.43211365 74.32815552 C58.17063932 75.9895527 58.90889355 77.65107056 59.64686584 79.31271362 C61.74807982 84.03406306 63.8911808 88.73182854 66.078125 93.4140625 C66.54951904 94.44208984 67.02091309 95.47011719 67.5065918 96.52929688 C68.33917574 98.34357963 69.18798862 100.15056325 70.05786133 101.94726562 C73.35503481 109.23244894 74.08079793 116.84173185 71.75 124.5625 C66.71227207 131.33194691 59.89656269 135.67069259 52.875 140.1875 C52.13241943 140.68467529 51.38983887 141.18185059 50.62475586 141.6940918 C45.03104923 145.176529 40.3138711 146.42932274 33.75 145.25 C28.37288947 143.29450324 24.15239459 139.25107733 19.9375 135.5 C18.71570025 134.4365152 17.49303849 133.37401994 16.26953125 132.3125 C15.67479004 131.79429687 15.08004883 131.27609375 14.46728516 130.7421875 C12.04150406 128.63437202 9.59828945 126.55191421 7.125 124.5 C6.36960937 123.86578125 5.61421875 123.2315625 4.8359375 122.578125 C2.59978958 120.89194673 2.59978958 120.89194673 -1.25 121.25 C-3.14960148 122.37577802 -3.14960148 122.37577802 -4.9375 123.99609375 C-5.63093506 124.58237549 -6.32437012 125.16865723 -7.03881836 125.77270508 C-7.7685083 126.4045874 -8.49819824 127.03646973 -9.25 127.6875 C-10.77043403 128.97336862 -12.29257957 130.25721618 -13.81640625 131.5390625 C-14.5655127 132.17102539 -15.31461914 132.80298828 -16.08642578 133.45410156 C-19.05280119 135.9163739 -22.09478997 138.26188462 -25.1875 140.5625 C-26.59322266 141.60857422 -26.59322266 141.60857422 -28.02734375 142.67578125 C-32.63517777 145.93932626 -36.71748275 146.14234149 -42.25 145.25 C-46.54940117 143.35456508 -50.34673823 140.85053586 -54.25 138.25 C-55.33539063 137.57839844 -56.42078125 136.90679687 -57.5390625 136.21484375 C-64.55878498 131.7826832 -69.82593443 127.53222402 -72.25 119.25 C-73.83381256 108.38957103 -66.14000254 96.54117595 -61.7477417 86.96566772 C-60.20350328 83.59818257 -58.67226234 80.22479338 -57.140625 76.8515625 C-56.82165253 76.14958237 -56.50268005 75.44760223 -56.17404175 74.72434998 C-52.91537464 67.53875338 -49.74123355 60.31670607 -46.57150269 53.09155273 C-44.70320182 48.83966983 -42.82170876 44.59360553 -40.94093323 40.347229 C-39.18689809 36.38320887 -37.450524 32.41212241 -35.72857666 28.43406677 C-34.43930357 25.46976281 -33.12374302 22.51713655 -31.8125 19.5625 C-31.14130127 17.98698364 -31.14130127 17.98698364 -30.45654297 16.37963867 C-27.56257746 9.94085811 -24.30779605 5.0845005 -18.25 1.25 C-12.59089497 -0.79700616 -5.92306979 0.02325052 0 0 Z " fill="#E8F0FC" transform="translate(187.25,106.75)"/>
<path d="M0 0 C8.25 0 16.5 0 25 0 C25 2.31 25 4.62 25 7 C26.32 7.33 27.64 7.66 29 8 C29 10.31 29 12.62 29 15 C29.99 15.33 30.98 15.66 32 16 C33.4783226 18.95664519 33.06032783 21.74229737 33 25 C34.485 25.495 34.485 25.495 36 26 C36 28.31 36 30.62 36 33 C36.99 33 37.98 33 39 33 C40.60725635 36.21451269 40.05748185 39.43612536 40 43 C41.485 43.495 41.485 43.495 43 44 C43.495 47.465 43.495 47.465 44 51 C45.485 51.495 45.485 51.495 47 52 C47 55.3 47 58.6 47 62 C48.32 62 49.64 62 51 62 C51 64.31 51 66.62 51 69 C51.99 69 52.98 69 54 69 C54.03738281 69.62648438 54.07476563 70.25296875 54.11328125 70.8984375 C54.17902344 71.71570313 54.24476563 72.53296875 54.3125 73.375 C54.37050781 74.18710938 54.42851563 74.99921875 54.48828125 75.8359375 C54.82990528 78.37921338 54.82990528 78.37921338 58 80 C58.1875 83.625 58.1875 83.625 58 87 C58.99 87 59.98 87 61 87 C62.35439668 89.70879335 62.06501451 92.00933268 62 95 C62.66 95 63.32 95 64 95 C65.60725635 98.21451269 65.05748185 101.43612536 65 105 C66.98 105.495 66.98 105.495 69 106 C69 108.31 69 110.62 69 113 C69.99 113 70.98 113 72 113 C72.495 117.95 72.495 117.95 73 123 C73.99 123 74.98 123 76 123 C76 125.64 76 128.28 76 131 C76.99 131 77.98 131 79 131 C80 133 80 133 80 141 C69.11 141 58.22 141 47 141 C47 138.69 47 136.38 47 134 C46.01 134 45.02 134 44 134 C43.94392578 133.06027344 43.94392578 133.06027344 43.88671875 132.1015625 C43.82097656 131.28429687 43.75523437 130.46703125 43.6875 129.625 C43.62949219 128.81289062 43.57148437 128.00078125 43.51171875 127.1640625 C43.17009472 124.62078662 43.17009472 124.62078662 40 123 C40 120.69 40 118.38 40 116 C21.85 116 3.7 116 -15 116 C-15 118.31 -15 120.62 -15 123 C-15.99 123 -16.98 123 -18 123 C-17.938125 124.11375 -17.87625 125.2275 -17.8125 126.375 C-17.9053125 128.169375 -17.9053125 128.169375 -18 130 C-18.99 130.66 -19.98 131.32 -21 132 C-21.33 134.97 -21.66 137.94 -22 141 C-32.56 141 -43.12 141 -54 141 C-54 137.7 -54 134.4 -54 131 C-53.34 130.67 -52.68 130.34 -52 130 C-51.690625 128.845 -51.38125 127.69 -51.0625 126.5 C-50.711875 125.345 -50.36125 124.19 -50 123 C-48.515 122.505 -48.515 122.505 -47 122 C-47 119.03 -47 116.06 -47 113 C-45.02 112.505 -45.02 112.505 -43 112 C-43 109.69 -43 107.38 -43 105 C-42.01 105 -41.02 105 -40 105 C-40.061875 103.741875 -40.12375 102.48375 -40.1875 101.1875 C-40.20137627 97.21888725 -40.20137627 97.21888725 -38.5625 95.4375 C-38.046875 94.963125 -37.53125 94.48875 -37 94 C-36.26958147 90.38976901 -36.26958147 90.38976901 -36 87 C-35.01 87 -34.02 87 -33 87 C-33.04125 85.906875 -33.0825 84.81375 -33.125 83.6875 C-33 80 -33 80 -31 77 C-30.34 77 -29.68 77 -29 77 C-29 74.36 -29 71.72 -29 69 C-27.68 69 -26.36 69 -25 69 C-25.04125 67.88625 -25.0825 66.7725 -25.125 65.625 C-25 62 -25 62 -23 60 C-22.32348793 57.80295489 -22.32348793 57.80295489 -21.875 55.375 C-21.62363281 54.14910156 -21.62363281 54.14910156 -21.3671875 52.8984375 C-21.24601562 52.27195313 -21.12484375 51.64546875 -21 51 C-20.01 51 -19.02 51 -18 51 C-18 48.69 -18 46.38 -18 44 C-16.02 43.505 -16.02 43.505 -14 43 C-14 39.7 -14 36.4 -14 33 C-13.01 33 -12.02 33 -11 33 C-11 30.69 -11 28.38 -11 26 C-9.68 25.67 -8.36 25.34 -7 25 C-7.020625 23.72125 -7.04125 22.4425 -7.0625 21.125 C-7.125 17.25 -7.125 17.25 -6 15 C-5.34 15 -4.68 15 -4 15 C-3.67 12.36 -3.34 9.72 -3 7 C-2.01 7 -1.02 7 0 7 C0 4.69 0 2.38 0 0 Z M11 50 C11 52.64 11 55.28 11 58 C9.68 58 8.36 58 7 58 C7 61.3 7 64.6 7 68 C6.01 68.33 5.02 68.66 4 69 C3.2833793 71.31847874 2.61757973 73.65319703 2 76 C1.34 76.66 0.68 77.32 0 78 C-0.45811675 79.97235333 -0.45811675 79.97235333 -0.625 82.125 C-0.74875 83.40375 -0.8725 84.6825 -1 86 C-2.485 86.495 -2.485 86.495 -4 87 C-4 87.99 -4 88.98 -4 90 C6.89 90 17.78 90 29 90 C29 89.01 29 88.02 29 87 C28.01 87 27.02 87 26 87 C25.67 84.36 25.34 81.72 25 79 C24.01 79 23.02 79 22 79 C22 75.7 22 72.4 22 69 C21.01 68.67 20.02 68.34 19 68 C18.67 65.69 18.34 63.38 18 61 C17.01 61 16.02 61 15 61 C15 57.7 15 54.4 15 51 C13.68 50.67 12.36 50.34 11 50 Z " fill="#000000" transform="translate(519,104)"/>
<path d="M0 0 C23.76 0 47.52 0 72 0 C72 0.99 72 1.98 72 3 C74.31 3.33 76.62 3.66 79 4 C79 4.99 79 5.98 79 7 C81.31 7 83.62 7 86 7 C86.495 8.98 86.495 8.98 87 11 C87.99 11 88.98 11 90 11 C90 11.99 90 12.98 90 14 C91.32 14.33 92.64 14.66 94 15 C94 16.32 94 17.64 94 19 C95.485 19.495 95.485 19.495 97 20 C97.495 24.455 97.495 24.455 98 29 C98.99 29 99.98 29 101 29 C101 39.56 101 50.12 101 61 C100.01 61 99.02 61 98 61 C98.04125 61.9075 98.0825 62.815 98.125 63.75 C98.00468444 66.8782046 97.6085292 68.38614006 96 71 C95.34 71 94.68 71 94 71 C93.67 72.65 93.34 74.3 93 76 C92.01 76 91.02 76 90 76 C90 76.99 90 77.98 90 79 C88.4375 81.1875 88.4375 81.1875 86 83 C82.25 83.25 82.25 83.25 79 83 C79 84.32 79 85.64 79 87 C76.69 87 74.38 87 72 87 C72 87.99 72 88.98 72 90 C57.81 90 43.62 90 29 90 C29 106.83 29 123.66 29 141 C19.43 141 9.86 141 0 141 C0 94.47 0 47.94 0 0 Z M29 25 C29 38.2 29 51.4 29 65 C38.57 65 48.14 65 58 65 C58 64.01 58 63.02 58 62 C61.465 61.505 61.465 61.505 65 61 C65 60.01 65 59.02 65 58 C66.32 58 67.64 58 69 58 C69 55.69 69 53.38 69 51 C69.99 51 70.98 51 72 51 C72 47.37 72 43.74 72 40 C71.01 39.67 70.02 39.34 69 39 C69 36.69 69 34.38 69 32 C67.68 32 66.36 32 65 32 C65 31.01 65 30.02 65 29 C63.02 28.67 61.04 28.34 59 28 C58.67 27.01 58.34 26.02 58 25 C48.43 25 38.86 25 29 25 Z " fill="#000000" transform="translate(940,104)"/>
<path d="M0 0 C8.91 0 17.82 0 27 0 C27.495 1.485 27.495 1.485 28 3 C29.423125 2.9690625 29.423125 2.9690625 30.875 2.9375 C34 3 34 3 36 4 C36 4.99 36 5.98 36 7 C36.99 7 37.98 7 39 7 C39.33 5.68 39.66 4.36 40 3 C44.10415189 2.97101903 48.20827753 2.9532078 52.3125 2.9375 C53.47974609 2.92912109 54.64699219 2.92074219 55.84960938 2.91210938 C57.52700195 2.90727539 57.52700195 2.90727539 59.23828125 2.90234375 C60.26993408 2.89710693 61.30158691 2.89187012 62.36450195 2.88647461 C65 3 65 3 68 4 C68.02312143 16.499571 68.04091406 28.99913695 68.05181217 41.49872494 C68.05704144 47.30213613 68.06413987 53.10553275 68.07543945 58.90893555 C68.08626678 64.50450853 68.0922765 70.10006745 68.09487724 75.6956501 C68.09673177 77.83558944 68.10035291 79.97552796 68.10573006 82.11546135 C68.11293844 85.10164966 68.11399103 88.08777907 68.11352539 91.07397461 C68.11712067 91.96805023 68.12071594 92.86212585 68.12442017 93.78329468 C68.11405216 99.88594784 68.11405216 99.88594784 67 101 C65.00035018 101.08758003 62.9976389 101.10696576 60.99609375 101.09765625 C59.17368164 101.09282227 59.17368164 101.09282227 57.31445312 101.08789062 C56.03505859 101.07951172 54.75566406 101.07113281 53.4375 101.0625 C52.15423828 101.05798828 50.87097656 101.05347656 49.54882812 101.04882812 C46.36583978 101.03699545 43.18294238 101.02051068 40 101 C39.67 100.01 39.34 99.02 39 98 C38.01 98 37.02 98 36 98 C36 98.99 36 99.98 36 101 C33.69 101 31.38 101 29 101 C28.34 102.32 27.68 103.64 27 105 C23.06734104 105.04947698 19.13480286 105.08575578 15.2019043 105.10986328 C13.20680382 105.12485495 11.21179054 105.15026731 9.21679688 105.17578125 C7.96318359 105.18222656 6.70957031 105.18867188 5.41796875 105.1953125 C4.26063232 105.20578613 3.1032959 105.21625977 1.91088867 105.22705078 C-1 105 -1 105 -4 103 C-4 102.34 -4 101.68 -4 101 C-6.31 101 -8.62 101 -11 101 C-11 100.01 -11 99.02 -11 98 C-12.98 97.67 -14.96 97.34 -17 97 C-17.33 96.01 -17.66 95.02 -18 94 C-20.01508358 93.26676204 -20.01508358 93.26676204 -22 93 C-22 92.01 -22 91.02 -22 90 C-22.99 90 -23.98 90 -25 90 C-25.33 87.69 -25.66 85.38 -26 83 C-26.99 83 -27.98 83 -29 83 C-29.28875 82.21625 -29.5775 81.4325 -29.875 80.625 C-30.84912254 77.90328368 -30.84912254 77.90328368 -33 76 C-33.38015988 73.4036808 -33.50595314 70.8337665 -33.65625 68.21484375 C-33.7696875 67.48394531 -33.883125 66.75304687 -34 66 C-34.66 65.67 -35.32 65.34 -36 65 C-36 56.75 -36 48.5 -36 40 C-35.01 40 -34.02 40 -33 40 C-33 36.37 -33 32.74 -33 29 C-31.68 29 -30.36 29 -29 29 C-29 26.69 -29 24.38 -29 22 C-28.01 22 -27.02 22 -26 22 C-25.67 20.02 -25.34 18.04 -25 16 C-24.01 15.67 -23.02 15.34 -22 15 C-21.26676204 12.98491642 -21.26676204 12.98491642 -21 11 C-19.02 11 -17.04 11 -15 11 C-15 9.68 -15 8.36 -15 7 C-13.68 7 -12.36 7 -11 7 C-11 6.01 -11 5.02 -11 4 C-8.24921116 3.08307039 -6.64051087 2.89113917 -3.8125 2.9375 C-1.9253125 2.9684375 -1.9253125 2.9684375 0 3 C0 2.01 0 1.02 0 0 Z M7 29 C7 29.99 7 30.98 7 32 C5.68 32 4.36 32 3 32 C1.61876037 33.96722008 0.28511874 35.96868328 -1 38 C-1.99 38.33 -2.98 38.66 -4 39 C-4.33 41.31 -4.66 43.62 -5 46 C-5.99 46.33 -6.98 46.66 -8 47 C-8 50.63 -8 54.26 -8 58 C-6.68 58 -5.36 58 -4 58 C-4 60.31 -4 62.62 -4 65 C-3.01 65 -2.02 65 -1 65 C-0.67 66.65 -0.34 68.3 0 70 C0.66 70 1.32 70 2 70 C2 70.66 2 71.32 2 72 C3.65 72.33 5.3 72.66 7 73 C7 73.99 7 74.98 7 76 C10.10398978 76.08710289 13.20766548 76.14042309 16.3125 76.1875 C17.19357422 76.21263672 18.07464844 76.23777344 18.98242188 76.26367188 C19.82998047 76.27333984 20.67753906 76.28300781 21.55078125 76.29296875 C22.33106689 76.3086792 23.11135254 76.32438965 23.9152832 76.34057617 C26.53303211 75.91291957 27.24583188 74.92189734 29 73 C29.99 72.67 30.98 72.34 32 72 C32 71.01 32 70.02 32 69 C33.32 69 34.64 69 36 69 C36.33 66.69 36.66 64.38 37 62 C37.99 61.67 38.98 61.34 40 61 C40 55.72 40 50.44 40 45 C38.68 44.34 37.36 43.68 36 43 C36 41.35 36 39.7 36 38 C34.68 37.34 33.36 36.68 32 36 C32 34.68 32 33.36 32 32 C30.02 32 28.04 32 26 32 C26 31.01 26 30.02 26 29 C19.73 29 13.46 29 7 29 Z " fill="#000000" transform="translate(813,144)"/>
<path d="M0 0 C9.9 0 19.8 0 30 0 C30.495 1.485 30.495 1.485 31 3 C33.31 3 35.62 3 38 3 C38.495 4.98 38.495 4.98 39 7 C40.98 7 42.96 7 45 7 C45.495 8.98 45.495 8.98 46 11 C46.99 11 47.98 11 49 11 C49 11.99 49 12.98 49 14 C50.32 14.33 51.64 14.66 53 15 C53 15.99 53 16.98 53 18 C53.99 18 54.98 18 56 18 C56.495 21.465 56.495 21.465 57 25 C57.99 25 58.98 25 60 25 C60 28.63 60 32.26 60 36 C61.98 36.495 61.98 36.495 64 37 C64.02898816 40.93748458 64.04679464 44.87494179 64.0625 48.8125 C64.07087891 49.93205078 64.07925781 51.05160156 64.08789062 52.20507812 C64.09111328 53.27822266 64.09433594 54.35136719 64.09765625 55.45703125 C64.10289307 56.44678955 64.10812988 57.43654785 64.11352539 58.45629883 C64 61 64 61 63 64 C59.67071876 65.10976041 57.19972643 65.12030895 53.69262695 65.11352539 C52.39150467 65.11344986 51.09038239 65.11337433 49.74983215 65.11329651 C48.3293148 65.10818985 46.90879783 65.10297385 45.48828125 65.09765625 C44.03525338 65.09579091 42.58222489 65.09436756 41.12919617 65.09336853 C37.30693828 65.08955246 33.48471845 65.07972993 29.66247559 65.06866455 C25.76131709 65.05843087 21.86015243 65.05386671 17.95898438 65.04882812 C10.30597224 65.03810686 2.65299146 65.02104135 -5 65 C-5 66.32 -5 67.64 -5 69 C-3.68 69 -2.36 69 -1 69 C-1 69.99 -1 70.98 -1 72 C-0.38125 72.144375 0.2375 72.28875 0.875 72.4375 C3 73 3 73 5 74 C5 74.66 5 75.32 5 76 C12.59 76 20.18 76 28 76 C28 75.01 28 74.02 28 73 C31.465 72.505 31.465 72.505 35 72 C35 71.01 35 70.02 35 69 C38.63 69 42.26 69 46 69 C46 69.99 46 70.98 46 72 C46.99 72 47.98 72 49 72 C49 73.32 49 74.64 49 76 C50.32 76 51.64 76 53 76 C53 77.32 53 78.64 53 80 C54.32 80 55.64 80 57 80 C57 83.3 57 86.6 57 90 C55.68 90 54.36 90 53 90 C53 91.32 53 92.64 53 94 C51.68 94 50.36 94 49 94 C49 94.99 49 95.98 49 97 C45.535 97.495 45.535 97.495 42 98 C42 98.99 42 99.98 42 101 C39.36 101 36.72 101 34 101 C33.505 102.485 33.505 102.485 33 104 C30.02640551 105.48679725 27.33700821 105.11112605 24.0234375 105.09765625 C22.99556625 105.09553383 22.99556625 105.09553383 21.94692993 105.09336853 C19.75624239 105.08776675 17.5656567 105.07521406 15.375 105.0625 C13.89062648 105.05748522 12.40625135 105.05292228 10.921875 105.04882812 C7.28121685 105.03779677 3.64061836 105.02053099 0 105 C-0.33 103.68 -0.66 102.36 -1 101 C-1.99 101.0825 -2.98 101.165 -4 101.25 C-8.63412067 101.28790692 -12.07634666 99.28285285 -16 97 C-16 96.01 -16 95.02 -16 94 C-16.99 94 -17.98 94 -19 94 C-21.1875 92.1875 -21.1875 92.1875 -23 90 C-23 89.01 -23 88.02 -23 87 C-24.32 86.67 -25.64 86.34 -27 86 C-27 85.01 -27 84.02 -27 83 C-27.99 83 -28.98 83 -30 83 C-30 80.69 -30 78.38 -30 76 C-31.32 76 -32.64 76 -34 76 C-34.04898437 75.28972656 -34.09796875 74.57945312 -34.1484375 73.84765625 C-34.26058594 72.46900391 -34.26058594 72.46900391 -34.375 71.0625 C-34.47941406 69.68771484 -34.47941406 69.68771484 -34.5859375 68.28515625 C-34.72257812 67.53105469 -34.85921875 66.77695313 -35 66 C-35.66 65.67 -36.32 65.34 -37 65 C-38.18298715 57.0276953 -38.91169755 47.89614205 -37 40 C-36.34 39.34 -35.68 38.68 -35 38 C-34.53993654 35.79749008 -34.53993654 35.79749008 -34.375 33.375 C-34.26285156 32.14910156 -34.26285156 32.14910156 -34.1484375 30.8984375 C-34.09945313 30.27195313 -34.05046875 29.64546875 -34 29 C-32.68 29 -31.36 29 -30 29 C-30 26.69 -30 24.38 -30 22 C-29.01 22 -28.02 22 -27 22 C-27 20.68 -27 19.36 -27 18 C-25.68 18 -24.36 18 -23 18 C-23 16.68 -23 15.36 -23 14 C-21.68 14 -20.36 14 -19 14 C-19 13.01 -19 12.02 -19 11 C-18.01 11 -17.02 11 -16 11 C-15.67 9.68 -15.34 8.36 -15 7 C-12.69 7 -10.38 7 -8 7 C-8 5.68 -8 4.36 -8 3 C-5.69 3 -3.38 3 -1 3 C-0.67 2.01 -0.34 1.02 0 0 Z M2 29 C2 29.99 2 30.98 2 32 C1.01 32 0.02 32 -1 32 C-1.33 32.99 -1.66 33.98 -2 35 C-2.99 35.33 -3.98 35.66 -5 36 C-5 37.32 -5 38.64 -5 40 C7.87 40 20.74 40 34 40 C33.34 39.67 32.68 39.34 32 39 C31.26924352 36.6859378 30.59861742 34.35171131 30 32 C29.360625 31.87625 28.72125 31.7525 28.0625 31.625 C27.0415625 31.315625 27.0415625 31.315625 26 31 C25.67 30.34 25.34 29.68 25 29 C17.41 29 9.82 29 2 29 Z " fill="#000000" transform="translate(1231,144)"/>
<path d="M0 0 C9.24 0 18.48 0 28 0 C28 20.46 28 40.92 28 62 C29.32 62.33 30.64 62.66 32 63 C32 64.98 32 66.96 32 69 C33.32 69.33 34.64 69.66 36 70 C36 70.99 36 71.98 36 73 C41.94 73 47.88 73 54 73 C54 71.68 54 70.36 54 69 C54.99 69 55.98 69 57 69 C57.33 66.69 57.66 64.38 58 62 C58.99 62 59.98 62 61 62 C61 41.54 61 21.08 61 0 C70.24 0 79.48 0 89 0 C90.81004432 1.81004432 90.13714022 4.59587263 90.14526367 7.03271484 C90.15164352 8.32430511 90.15802338 9.61589539 90.16459656 10.94662476 C90.16612527 12.36806196 90.16723921 13.78949966 90.16796875 15.2109375 C90.17117994 16.65963779 90.1745439 18.10833776 90.17805481 19.55703735 C90.1840531 22.59857942 90.18589404 25.64009305 90.18530273 28.68164062 C90.18520118 32.58136066 90.19884354 36.48089835 90.21607494 40.38057518 C90.22718875 43.37455077 90.22922212 46.36848224 90.22869301 49.36247635 C90.22987444 50.80020398 90.23430536 52.23793271 90.24202538 53.67564011 C90.25181039 55.68656832 90.24768682 57.69754973 90.24291992 59.70849609 C90.24434494 60.85353607 90.24576996 61.99857605 90.24723816 63.17831421 C90 66 90 66 88 69 C87.34 69 86.68 69 86 69 C86 72.63 86 76.26 86 80 C85.01 80 84.02 80 83 80 C82.67 82.31 82.34 84.62 82 87 C81.01 87 80.02 87 79 87 C78.505 88.98 78.505 88.98 78 91 C77.01 91 76.02 91 75 91 C75 91.99 75 92.98 75 94 C71.535 94.495 71.535 94.495 68 95 C68 95.99 68 96.98 68 98 C65.69 98 63.38 98 61 98 C60.505 99.98 60.505 99.98 60 102 C50.1 102 40.2 102 30 102 C29.67 100.68 29.34 99.36 29 98 C26.36 98 23.72 98 21 98 C21 97.01 21 96.02 21 95 C17.535 94.505 17.535 94.505 14 94 C14 93.01 14 92.02 14 91 C12.68 90.67 11.36 90.34 10 90 C10 89.01 10 88.02 10 87 C9.01 87 8.02 87 7 87 C7 84.69 7 82.38 7 80 C5.68 80 4.36 80 3 80 C2.96261719 79.40832031 2.92523437 78.81664062 2.88671875 78.20703125 C2.82097656 77.41683594 2.75523437 76.62664062 2.6875 75.8125 C2.60048828 74.64654297 2.60048828 74.64654297 2.51171875 73.45703125 C2.14069937 70.90498763 2.14069937 70.90498763 0.49029541 68.74711609 C-1.30318465 65.44112864 -1.36863961 63.3347975 -1.35644531 59.58911133 C-1.35944641 58.31461624 -1.36244751 57.04012115 -1.36553955 55.727005 C-1.35353619 54.34534294 -1.34105332 52.96368497 -1.328125 51.58203125 C-1.32506521 50.15907491 -1.32319076 48.73611557 -1.32244873 47.31315613 C-1.31785615 44.33829193 -1.30346737 41.36370002 -1.28125 38.38891602 C-1.25289115 34.57220243 -1.24202957 30.75570228 -1.2375679 26.93889332 C-1.23341668 24.00414388 -1.22360294 21.0694377 -1.21169281 18.13471031 C-1.20599016 16.72686801 -1.20123143 15.31902157 -1.19742584 13.91117287 C-1.19056858 11.94832497 -1.17603965 9.98550835 -1.16113281 8.02270508 C-1.15430481 6.9052742 -1.14747681 5.78784332 -1.14044189 4.6365509 C-1 2 -1 2 0 0 Z " fill="#000000" transform="translate(603,147)"/>
<path d="M0 0 C10.56 0 21.12 0 32 0 C32 1.32 32 2.64 32 4 C33.32 4 34.64 4 36 4 C36 5.32 36 6.64 36 8 C36.99 8 37.98 8 39 8 C39 10.31 39 12.62 39 15 C40.32 15 41.64 15 43 15 C43 16.32 43 17.64 43 19 C43.639375 19.103125 44.27875 19.20625 44.9375 19.3125 C45.618125 19.539375 46.29875 19.76625 47 20 C47.495 21.485 47.495 21.485 48 23 C48.66 23 49.32 23 50 23 C50.33 21.68 50.66 20.36 51 19 C51.99 19 52.98 19 54 19 C54.185625 17.5459375 54.185625 17.5459375 54.375 16.0625 C54.58125 15.051875 54.7875 14.04125 55 13 C55.66 12.67 56.32 12.34 57 12 C57.65213292 9.97536745 57.65213292 9.97536745 58 8 C58.99 8 59.98 8 61 8 C61 6.68 61 5.36 61 4 C62.56982422 1.77661133 62.56982422 1.77661133 65 0 C68.17626953 -0.4699707 68.17626953 -0.4699707 71.8828125 -0.42578125 C72.53829071 -0.42249313 73.19376892 -0.41920502 73.86911011 -0.41581726 C75.24926746 -0.40542553 76.62938211 -0.38552453 78.00927734 -0.35668945 C80.12491788 -0.31250172 82.23942323 -0.29523448 84.35546875 -0.28320312 C94.63920406 -0.18039797 94.63920406 -0.18039797 97 1 C97 2.98 97 4.96 97 7 C96.01 7 95.02 7 94 7 C94 8.32 94 9.64 94 11 C92.68 11 91.36 11 90 11 C90 13.31 90 15.62 90 18 C89.01 18 88.02 18 87 18 C86.67 19.32 86.34 20.64 86 22 C85.01 22 84.02 22 83 22 C82.814375 23.4540625 82.814375 23.4540625 82.625 24.9375 C82.41875 25.948125 82.2125 26.95875 82 28 C81.34 28.33 80.68 28.66 80 29 C79.34786708 31.02463255 79.34786708 31.02463255 79 33 C78.01 33 77.02 33 76 33 C75.67 34.32 75.34 35.64 75 37 C74.01 37 73.02 37 72 37 C72 38.98 72 40.96 72 43 C70.68 43.33 69.36 43.66 68 44 C68.08708669 45.45945288 68.19526907 46.91765868 68.3125 48.375 C68.37050781 49.18710938 68.42851563 49.99921875 68.48828125 50.8359375 C68.82990528 53.37921338 68.82990528 53.37921338 72 55 C72 55.99 72 56.98 72 58 C72.598125 58.061875 73.19625 58.12375 73.8125 58.1875 C76 59 76 59 77.75 61.25 C79.05518125 64.12139874 79.26648789 65.89097466 79 69 C80.98 69.495 80.98 69.495 83 70 C83 70.99 83 71.98 83 73 C83.99 73 84.98 73 86 73 C86.495 76.465 86.495 76.465 87 80 C87.99 80 88.98 80 90 80 C90 81.32 90 82.64 90 84 C90.598125 84.04125 91.19625 84.0825 91.8125 84.125 C94 85 94 85 95.75 87.625 C97 91 97 91 97 98 C86.44 98 75.88 98 65 98 C65 97.01 65 96.02 65 95 C63.02 94.505 63.02 94.505 61 94 C61 93.01 61 92.02 61 91 C60.01 91 59.02 91 58 91 C58 88.69 58 86.38 58 84 C56.68 84 55.36 84 54 84 C54 82.68 54 81.36 54 80 C53.01 80 52.02 80 51 80 C50.505 76.535 50.505 76.535 50 73 C49.01 73 48.02 73 47 73 C46.505 74.485 46.505 74.485 46 76 C45.01 76 44.02 76 43 76 C43 77.32 43 78.64 43 80 C41.68 80 40.36 80 39 80 C39 82.31 39 84.62 39 87 C38.01 87 37.02 87 36 87 C36 88.32 36 89.64 36 91 C34.68 91 33.36 91 32 91 C32.020625 91.969375 32.04125 92.93875 32.0625 93.9375 C32 97 32 97 31 98 C28.40640678 98.08851529 25.83960309 98.11525945 23.24609375 98.09765625 C22.47064713 98.0962413 21.6952005 98.09482635 20.89625549 98.09336853 C18.40996506 98.08775345 15.9237634 98.07519846 13.4375 98.0625 C11.75586067 98.05748694 10.07421994 98.0529237 8.39257812 98.04882812 C4.26168434 98.03777913 0.13085724 98.02050445 -4 98 C-4 96.02 -4 94.04 -4 92 C-2.02 91.505 -2.02 91.505 0 91 C0 89.68 0 88.36 0 87 C0.99 87 1.98 87 3 87 C3.33 85.02 3.66 83.04 4 81 C4.99 81 5.98 81 7 81 C7 79.68 7 78.36 7 77 C7.99 77 8.98 77 10 77 C10.33 75.68 10.66 74.36 11 73 C11.99 73 12.98 73 14 73 C14 71.02 14 69.04 14 67 C15.98 66.505 15.98 66.505 18 66 C18 64.68 18 63.36 18 62 C18.99 62 19.98 62 21 62 C21.144375 61.38125 21.28875 60.7625 21.4375 60.125 C22 58 22 58 23 56 C23.66 56 24.32 56 25 56 C25.33 54.35 25.66 52.7 26 51 C26.99 51 27.98 51 29 51 C29 48.69 29 46.38 29 44 C27.68 44 26.36 44 25 44 C25 42.68 25 41.36 25 40 C23.68 39.67 22.36 39.34 21 39 C21 38.01 21 37.02 21 36 C19.515 35.505 19.515 35.505 18 35 C18 33.02 18 31.04 18 29 C16.68 29 15.36 29 14 29 C13.67 28.01 13.34 27.02 13 26 C12.34 25.67 11.68 25.34 11 25 C10.59270772 22.67843403 10.25561323 20.3431213 10 18 C9.01 18 8.02 18 7 18 C7 17.01 7 16.02 7 15 C5.68 14.67 4.36 14.34 3 14 C3 13.01 3 12.02 3 11 C2.01 10.67 1.02 10.34 0 10 C0 6.7 0 3.4 0 0 Z " fill="#000000" transform="translate(1096,147)"/>
<path d="M0 0 C1.2890625 -0.01611328 2.578125 -0.03222656 3.90625 -0.04882812 C18.60048658 -0.05637137 18.60048658 -0.05637137 24.26147461 4.68237305 C28.81078349 9.45168305 31.10900801 15.28483452 33.5625 21.3125 C34.36087212 23.23017142 35.16170245 25.14682107 35.96484375 27.0625 C36.38531982 28.06603516 36.8057959 29.06957031 37.23901367 30.10351562 C39.01221398 34.20901938 40.90788536 38.25256867 42.81253052 42.29797363 C47.41346534 52.0871182 51.79016556 61.97910946 56.18334961 71.86279297 C56.55419174 72.69698761 56.92503387 73.53118225 57.30711365 74.39065552 C58.04563932 76.0520527 58.78389355 77.71357056 59.52186584 79.37521362 C61.62307982 84.09656306 63.7661808 88.79432854 65.953125 93.4765625 C66.42451904 94.50458984 66.89591309 95.53261719 67.3815918 96.59179688 C68.21417574 98.40607963 69.06298862 100.21306325 69.93286133 102.00976562 C73.23003481 109.29494894 73.95579793 116.90423185 71.625 124.625 C66.58727207 131.39444691 59.77156269 135.73319259 52.75 140.25 C52.00741943 140.74717529 51.26483887 141.24435059 50.49975586 141.7565918 C44.92755787 145.2256385 40.16970607 146.35939815 33.625 145.3125 C30.0909086 143.91599694 27.32337447 142.01087447 24.625 139.3125 C24.625 137.9925 24.625 136.6725 24.625 135.3125 C23.820625 135.044375 23.01625 134.77625 22.1875 134.5 C21.341875 134.108125 20.49625 133.71625 19.625 133.3125 C19.295 132.3225 18.965 131.3325 18.625 130.3125 C17.635 129.9825 16.645 129.6525 15.625 129.3125 C10.87028302 125.80306604 10.87028302 125.80306604 9.625 123.3125 C8.14 122.3225 8.14 122.3225 6.625 121.3125 C12.02346418 114.07329875 16.84846137 110.51647383 25.625 108.3125 C26.51058594 108.08046875 27.39617187 107.8484375 28.30859375 107.609375 C30.625 107.3125 30.625 107.3125 33 109.0625 C33.86625 109.805 34.7325 110.5475 35.625 111.3125 C36.82667603 111.90135736 38.0498036 112.44813426 39.2890625 112.953125 C40.94035156 113.62601563 40.94035156 113.62601563 42.625 114.3125 C41.98437622 112.95608398 41.98437622 112.95608398 41.33081055 111.57226562 C27.16132815 81.56087424 27.16132815 81.56087424 21.25 68.625 C20.6300415 67.27631836 20.6300415 67.27631836 19.99755859 65.90039062 C17.43145784 60.3074854 14.90331799 54.69901378 12.40246582 49.07670593 C10.82279165 45.53525201 9.22776856 42.0008153 7.63079834 38.46713257 C6.84424734 36.71735733 6.06417513 34.96465323 5.29107666 33.20889282 C-1.16185651 18.1493827 -1.16185651 18.1493827 -13.34375 7.65625 C-14.1790625 7.3778125 -15.014375 7.099375 -15.875 6.8125 C-16.7309375 6.5134375 -17.586875 6.214375 -18.46875 5.90625 C-19.41234375 5.61234375 -19.41234375 5.61234375 -20.375 5.3125 C-20.375 4.3225 -20.375 3.3325 -20.375 2.3125 C-13.5752277 -0.26904968 -7.19144548 -0.01787139 0 0 Z " fill="#E9F1FC" transform="translate(187.375,106.6875)"/>
<path d="M0 0 C9.24 0 18.48 0 28 0 C29 1 29 1 29.12304783 3.3719492 C29.12166514 4.96342478 29.12166514 4.96342478 29.12025452 6.58705139 C29.12162918 7.80006424 29.12300385 9.01307709 29.12442017 10.2628479 C29.12088056 11.61932397 29.11724575 12.9757998 29.11352539 14.33227539 C29.11324352 15.75112404 29.11340124 17.16997284 29.1139679 18.58882141 C29.11425589 22.45228801 29.1083589 26.31572383 29.10139394 30.17918324 C29.09516067 34.21242573 29.09455662 38.24566885 29.09336853 42.27891541 C29.09025514 49.92165468 29.08204164 57.56437973 29.07201904 65.20711273 C29.06085816 73.90588019 29.05534752 82.60464831 29.05032361 91.30342114 C29.03985903 109.20229048 29.02151345 127.1011403 29 145 C19.43 145 9.86 145 0 145 C0 97.15 0 49.3 0 0 Z " fill="#000000" transform="translate(1306,100)"/>
<path d="M0 0 C8.25 0 16.5 0 25 0 C25 0.99 25 1.98 25 3 C26.98 3 28.96 3 31 3 C31.495 4.98 31.495 4.98 32 7 C33.32 7 34.64 7 36 7 C36 8.32 36 9.64 36 11 C37.32 11.33 38.64 11.66 40 12 C40 13.65 40 15.3 40 17 C38.68 17.33 37.36 17.66 36 18 C36 18.99 36 19.98 36 21 C34.68 21 33.36 21 32 21 C32 22.32 32 23.64 32 25 C31.01 25 30.02 25 29 25 C29 26.32 29 27.64 29 29 C27.68 29 26.36 29 25 29 C25 29.99 25 30.98 25 32 C22.69 32 20.38 32 18 32 C18 31.01 18 30.02 18 29 C12.06 29 6.12 29 0 29 C0 29.99 0 30.98 0 32 C-1.32 32 -2.64 32 -4 32 C-4 33.32 -4 34.64 -4 36 C-4.99 36 -5.98 36 -7 36 C-6.99777939 36.79957626 -6.99555878 37.59915253 -6.99327087 38.42295837 C-6.97326908 45.94259639 -6.95802645 53.46222159 -6.94818783 60.98187923 C-6.94295974 64.84820118 -6.93586346 68.71450121 -6.92456055 72.58081055 C-6.913729 76.30903401 -6.9077226 80.03723634 -6.90512276 83.76547432 C-6.90326899 85.19089656 -6.89964929 86.61631759 -6.89426994 88.04173088 C-6.88705607 90.03163408 -6.88659192 92.02155834 -6.88647461 94.01147461 C-6.884254 95.14620712 -6.88203339 96.28093964 -6.87974548 97.45005798 C-7 100 -7 100 -8 101 C-17.24 101 -26.48 101 -36 101 C-36 68.66 -36 36.32 -36 3 C-24.12 3 -12.24 3 0 3 C0 2.01 0 1.02 0 0 Z " fill="#000000" transform="translate(744,144)"/>
<path d="M0 0 C9.24 0 18.48 0 28 0 C29.91064299 1.91064299 29.12014611 4.73827895 29.12442017 7.28016663 C29.12082489 8.18359299 29.11722961 9.08701935 29.11352539 10.01782227 C29.11367142 10.96406464 29.11381744 11.91030701 29.1139679 12.88522339 C29.11326836 16.02897392 29.10547409 19.17266601 29.09765625 22.31640625 C29.09579221 24.48974068 29.09436824 26.66307552 29.09336853 28.83641052 C29.08954221 34.56901195 29.07971097 40.30158823 29.06866455 46.03417969 C29.05845287 51.87890279 29.05387143 57.72362993 29.04882812 63.56835938 C29.0380888 75.04558577 29.02049108 86.52278686 29 98 C19.43 98 9.86 98 0 98 C0 65.66 0 33.32 0 0 Z " fill="#000000" transform="translate(1056,147)"/>
<path d="M0 0 C0.66 0 1.32 0 2 0 C2.62491333 1.37043457 2.62491333 1.37043457 3.26245117 2.76855469 C10.38513247 18.38500418 17.51232756 33.99893454 24.75 49.5625 C25.52512939 51.23046631 25.52512939 51.23046631 26.31591797 52.93212891 C28.44881995 57.5200446 30.58291165 62.10739373 32.72314453 66.69189453 C33.8744183 69.15816229 35.02373813 71.62532208 36.17089844 74.09350586 C37.24266777 76.39914885 38.31740588 78.7034148 39.39550781 81.00610352 C39.86956055 82.02760498 40.34361328 83.04910645 40.83203125 84.1015625 C41.25202393 85.00213379 41.6720166 85.90270508 42.10473633 86.83056641 C43 89 43 89 43 91 C39.3430071 89.41186928 36.64336618 87.14671762 33.625 84.5625 C29.04580536 80.68305391 24.40692388 76.89525541 19.6875 73.1875 C19.12562988 72.74414307 18.56375977 72.30078613 17.98486328 71.84399414 C16.33281078 70.54970014 14.66832197 69.27323144 13 68 C12.40944824 67.53658203 11.81889648 67.07316406 11.21044922 66.59570312 C6.69786226 63.17362742 3.6309346 61.97254892 -2.12890625 62.27734375 C-7.27535095 63.57270738 -10.57457856 66.97981802 -14.37939453 70.53173828 C-17.51071386 73.36870038 -20.83412715 75.97689065 -24.125 78.625 C-25.49226024 79.73558754 -26.85944961 80.84626233 -28.2265625 81.95703125 C-32.43865657 85.36396491 -36.69485569 88.7113481 -41 92 C-41.33 91.34 -41.66 90.68 -42 90 C-41.19461306 87.82682925 -40.27773794 85.69476671 -39.31640625 83.5859375 C-39.02580322 82.94375778 -38.7352002 82.30157806 -38.43579102 81.63993835 C-37.48605906 79.54785944 -36.52464396 77.46139619 -35.5625 75.375 C-34.9090589 73.94344451 -34.2559828 72.51172236 -33.60327148 71.07983398 C-30.08745367 63.39344469 -26.48970118 55.76102947 -22.62719727 48.24169922 C-20.07571901 43.25168264 -17.85080847 38.15639814 -15.6472168 33.00732422 C-13.25212502 27.45943311 -10.59279928 22.07034465 -7.85742188 16.68359375 C-5.07428982 11.19418141 -2.48210096 5.63245988 0 0 Z " fill="#1484F7" transform="translate(187,130)"/>
<path d="M0 0 C7.26 0 14.52 0 22 0 C22 1.32 22 2.64 22 4 C22.99 4 23.98 4 25 4 C26.17426264 6.34852528 26.11508173 7.73774065 26.09765625 10.3515625 C26.09443359 11.20234375 26.09121094 12.053125 26.08789062 12.9296875 C26.07532227 14.26386719 26.07532227 14.26386719 26.0625 15.625 C26.05798828 16.5221875 26.05347656 17.419375 26.04882812 18.34375 C26.03702591 20.56256648 26.02056155 22.78125018 26 25 C24.68 25 23.36 25 22 25 C22 26.32 22 27.64 22 29 C20.68 29 19.36 29 18 29 C18 29.99 18 30.98 18 32 C13.38 32 8.76 32 4 32 C3.67 31.34 3.34 30.68 3 30 C1.02111039 29.27306096 -0.97954558 28.60183749 -3 28 C-3 25.69 -3 23.38 -3 21 C-4.32 20.67 -5.64 20.34 -7 20 C-7.08096803 18.54257537 -7.13917774 17.08387193 -7.1875 15.625 C-7.22230469 14.81289062 -7.25710938 14.00078125 -7.29296875 13.1640625 C-7.19628906 12.44992188 -7.09960938 11.73578125 -7 11 C-6.01 10.34 -5.02 9.68 -4 9 C-3.63557767 7.33985384 -3.30027117 5.67293936 -3 4 C-2.34 3.67 -1.68 3.34 -1 3 C-0.67 2.01 -0.34 1.02 0 0 Z " fill="#000000" transform="translate(1059,104)"/>
<path d="M0 0 C0.495 0.99 0.495 0.99 1 2 C-1.57223523 1.54067228 -2.90504236 1.0796419 -4.9375 -0.625 C-6.90966189 -2.26746789 -6.90966189 -2.26746789 -9.28125 -1.6953125 C-19.66020065 0.79361354 -19.66020065 0.79361354 -27 8 C-27.98230498 9.0173873 -28.97469597 10.02596117 -30 11 C-26.82679218 14.53586014 -24.83256305 16.58578031 -20 17 C-20.33 17.66 -20.66 18.32 -21 19 C-19.576875 20.2065625 -19.576875 20.2065625 -18.125 21.4375 C-17.32449219 22.11619141 -17.32449219 22.11619141 -16.5078125 22.80859375 C-14.99405921 24.0878152 -14.99405921 24.0878152 -13 25 C-13.33 25.99 -13.66 26.98 -14 28 C-17.33972456 25.3412605 -20.67093448 22.67207113 -24 20 C-25.00417969 19.19820312 -26.00835937 18.39640625 -27.04296875 17.5703125 C-28.50669922 16.39082031 -28.50669922 16.39082031 -30 15.1875 C-30.9075 14.45917969 -31.815 13.73085937 -32.75 12.98046875 C-35 11 -35 11 -37 8 C-23.27703985 -3.14990512 -23.27703985 -3.14990512 -16 -5 C-15.34644531 -5.1959375 -14.69289062 -5.391875 -14.01953125 -5.59375 C-7.8671766 -7.02176269 -4.32170552 -4.2570416 0 0 Z " fill="#C3E1F9" transform="translate(225,217)"/>
<path d="M0 0 C2.53833449 1.26916725 2.89400901 2.41624809 4.125 4.9375 C4.47820312 5.64777344 4.83140625 6.35804688 5.1953125 7.08984375 C6 9 6 9 6 11 C6.66 11 7.32 11 8 11 C8 11.66 8 12.32 8 13 C8.70125 13.268125 9.4025 13.53625 10.125 13.8125 C13 15 13 15 15.75 16.5 C20.64135287 18.75754748 25.75631996 20.74789335 31 19 C31.73030908 12.78675502 32.23180249 7.15901243 31 1 C34.41652412 5.30779128 35.15343241 8.41055912 35.1875 13.875 C35.20167969 14.90367187 35.21585937 15.93234375 35.23046875 16.9921875 C34.99581369 20.05463488 34.29184572 22.23248861 33 25 C32.34 24.34 31.68 23.68 31 23 C29.0915565 22.710221 27.17186365 22.49296768 25.25 22.3125 C17.50221523 21.22296777 10.38200057 18.60204954 4 14 C3.20703125 11.46484375 3.20703125 11.46484375 3 9 C2.484375 7.96875 1.96875 6.9375 1.4375 5.875 C0 3 0 3 0 0 Z " fill="#B6CFED" transform="translate(225,208)"/>
<path d="M0 0 C0.33 0.66 0.66 1.32 1 2 C0.11063721 4.3500381 -0.8303948 6.59543931 -1.875 8.875 C-4.37335243 14.28494057 -4.37335243 14.28494057 -6 20 C-5.01 20.33 -4.02 20.66 -3 21 C-3.66 21.99 -4.32 22.98 -5 24 C-5 24.99 -5 25.98 -5 27 C-4.01 26.67 -3.02 26.34 -2 26 C-1.67 26.66 -1.34 27.32 -1 28 C-1.33 28.66 -1.66 29.32 -2 30 C1.96 30 5.92 30 10 30 C7.57137139 32.42862861 6.78663955 32.34839926 3.4375 32.4375 C-2.34685018 32.36172249 -6.29058902 30.18510888 -11 27 C-10.01 26.67 -9.02 26.34 -8 26 C-8.05800781 25.28457031 -8.11601562 24.56914062 -8.17578125 23.83203125 C-8.55352297 15.48933561 -7.05720646 8.37154414 -3 1 C-2.01 0.67 -1.02 0.34 0 0 Z " fill="#C1DDF8" transform="translate(147,220)"/>
<path d="M0 0 C1.14140298 3.42420894 0.93660352 3.77588783 -0.51171875 6.87890625 C-0.85589844 7.63067139 -1.20007813 8.38243652 -1.5546875 9.15698242 C-1.92851563 9.95080322 -2.30234375 10.74462402 -2.6875 11.5625 C-3.43194985 13.19487491 -4.17544733 14.8276845 -4.91796875 16.4609375 C-5.27810059 17.2456543 -5.63823242 18.03037109 -6.00927734 18.83886719 C-11.10857539 29.03140448 -11.10857539 29.03140448 -10.26953125 39.99609375 C-8.14070884 44.59261234 -5.37713049 48.24763279 -2 52 C-3.65 51.34 -5.3 50.68 -7 50 C-7 49.34 -7 48.68 -7 48 C-7.66 48 -8.32 48 -9 48 C-13.94720263 41.50679655 -13.7849082 34.94947725 -13 27 C-12.39780318 24.97965265 -11.74975572 22.97035804 -11 21 C-10.34 21 -9.68 21 -9 21 C-8.87753906 20.45859375 -8.75507812 19.9171875 -8.62890625 19.359375 C-7.88995118 16.58714603 -6.93073846 13.94135583 -5.9375 11.25 C-5.57527344 10.26515625 -5.21304688 9.2803125 -4.83984375 8.265625 C-4.56269531 7.51796875 -4.28554687 6.7703125 -4 6 C-3.34 6 -2.68 6 -2 6 C-1.855625 5.38125 -1.71125 4.7625 -1.5625 4.125 C-1 2 -1 2 0 0 Z " fill="#3188DC" transform="translate(127,188)"/>
<path d="M0 0 C1.29808594 -0.020625 2.59617188 -0.04125 3.93359375 -0.0625 C10.88624735 -0.09084925 16.5042488 0.04944092 22.75 3.25 C23.245 4.24 23.245 4.24 23.75 5.25 C22.1 5.25 20.45 5.25 18.75 5.25 C18.75 4.59 18.75 3.93 18.75 3.25 C5.88 3.25 -6.99 3.25 -20.25 3.25 C-15.29145869 -1.70854131 -6.50576146 0.02553783 0 0 Z " fill="#D3EFFC" transform="translate(187.25,106.75)"/>
<path d="M0 0 C0.66 0.66 1.32 1.32 2 2 C0.78376953 2.185625 0.78376953 2.185625 -0.45703125 2.375 C-9.37157734 4.03545096 -15.0920049 7.23226691 -22 13 C-23.66553766 14.33474337 -25.33188126 15.66848379 -27 17 C-27.66 16.01 -28.32 15.02 -29 14 C-19.79066445 6.51741486 -12.32614635 0.63755929 0 0 Z " fill="#91AFD8" transform="translate(217,211)"/>
<path d="M0 0 C1.62808424 5.35766727 -0.59800509 9.19601018 -3 14 C-3 14.66 -3 15.32 -3 16 C-2.34 16 -1.68 16 -1 16 C-1 15.34 -1 14.68 -1 14 C-0.01 14.33 0.98 14.66 2 15 C-3.445 19.455 -3.445 19.455 -9 24 C-9.33 23.34 -9.66 22.68 -10 22 C-9.19555664 19.75341797 -9.19555664 19.75341797 -7.91015625 16.9921875 C-7.45576172 16.00605469 -7.00136719 15.01992187 -6.53320312 14.00390625 C-5.80520508 12.45509766 -5.80520508 12.45509766 -5.0625 10.875 C-4.58103516 9.83472656 -4.09957031 8.79445312 -3.60351562 7.72265625 C-2.40932402 5.14509418 -1.20789628 2.57116119 0 0 Z " fill="#2E88E2" transform="translate(155,198)"/>
<path d="M0 0 C0.66 0.66 1.32 1.32 2 2 C1.67 2.66 1.34 3.32 1 4 C1.66 4.33 2.32 4.66 3 5 C2.154375 5.825 1.30875 6.65 0.4375 7.5 C-3.82755668 12.41188992 -5.9428842 18.31207657 -8.38671875 24.2578125 C-9.67161951 27.35371511 -11.18107995 30.17545346 -13 33 C-14.24546405 30.50907189 -13.7767578 29.58919267 -13 27 C-12.34 27 -11.68 27 -11 27 C-10.938125 25.845 -10.87625 24.69 -10.8125 23.5 C-10.30237659 19.12530527 -8.53336542 16.46841352 -6.078125 12.8984375 C-4.56065415 10.22636927 -4.62523921 7.99808634 -5 5 C-3.68 5.33 -2.36 5.66 -1 6 C-1.20625 5.38125 -1.4125 4.7625 -1.625 4.125 C-1.74875 3.42375 -1.8725 2.7225 -2 2 C-1.34 1.34 -0.68 0.68 0 0 Z " fill="#2C86DF" transform="translate(164,105)"/>
<path d="M0 0 C0.99 0.33 1.98 0.66 3 1 C3 2.65 3 4.3 3 6 C3.66 6 4.32 6 5 6 C5.19335938 6.63808594 5.38671875 7.27617187 5.5859375 7.93359375 C5.84632813 8.75988281 6.10671875 9.58617187 6.375 10.4375 C6.63023437 11.26121094 6.88546875 12.08492187 7.1484375 12.93359375 C7.80882227 15.17798016 7.80882227 15.17798016 10 16 C10.6328125 18.28515625 10.6328125 18.28515625 11.125 21.0625 C11.29257813 21.98160156 11.46015625 22.90070313 11.6328125 23.84765625 C11.75398437 24.55792969 11.87515625 25.26820313 12 26 C12.66 26 13.32 26 14 26 C14.5345256 27.24420647 15.05208611 28.49570936 15.5625 29.75 C15.85253906 30.44609375 16.14257812 31.1421875 16.44140625 31.859375 C17.08420113 34.32267287 16.6897518 35.59358157 16 38 C13.71663413 32.91176815 11.43809802 27.82141254 9.1640625 22.72900391 C8.38935469 20.99598514 7.61331716 19.26356018 6.8359375 17.53173828 C5.72047593 15.04613704 4.60977272 12.55845792 3.5 10.0703125 C3.15001953 9.29317902 2.80003906 8.51604553 2.43945312 7.71536255 C0 2.22774341 0 2.22774341 0 0 Z " fill="#2A84DC" transform="translate(229,146)"/>
<path d="M0 0 C-4.56854522 4.8731149 -9.75694849 8.8792892 -15 13 C-16.3303125 14.11181641 -16.3303125 14.11181641 -17.6875 15.24609375 C-20 17 -20 17 -22 17 C-21.67 15.35 -21.34 13.7 -21 12 C-20.01 11.67 -19.02 11.34 -18 11 C-16.99357052 9.67151309 -15.99307821 8.33849671 -15 7 C-14.34 7 -13.68 7 -13 7 C-8.90824712 4.9972472 -8.90824712 4.9972472 -7 1 C-4.53721199 -0.231394 -2.7204945 -0.07159196 0 0 Z " fill="#CCE8F8" transform="translate(179,233)"/>
<path d="M0 0 C0.99 0.33 1.98 0.66 3 1 C3.75255273 3.05241654 4.48342245 5.11527349 5.10546875 7.2109375 C6.11488061 10.3581867 7.39847404 13.33217253 8.6875 16.375 C10.98969244 22.28303603 12.04508906 27.68546191 11 34 C10.34 34.99 9.68 35.98 9 37 C8.34 36.67 7.68 36.34 7 36 C7.33 35.01 7.66 34.02 8 33 C9.77340564 22.30471859 5.43023286 14.07793832 0.734375 4.80249023 C0 3 0 3 0 0 Z " fill="#2A84E1" transform="translate(251,195)"/>
<path d="M0 0 C0.66 0.33 1.32 0.66 2 1 C0.26460179 6.92429044 -2.44551609 12.3358988 -5.125 17.875 C-5.59292969 18.84953125 -6.06085938 19.8240625 -6.54296875 20.828125 C-7.69214845 23.22029499 -8.84457243 25.61084316 -10 28 C-11.70723592 22.46661835 -9.46481299 17.07461498 -7 12 C-6.01 11.34 -5.02 10.68 -4 10 C-4 9.01 -4 8.02 -4 7 C-3.34 7 -2.68 7 -2 7 C-1.855625 6.030625 -1.71125 5.06125 -1.5625 4.0625 C-1 1 -1 1 0 0 Z " fill="#CFE8F8" transform="translate(180,140)"/>
<path d="M0 0 C6.66145454 2.27861272 11.0471238 6.96967486 14.8125 12.8125 C15.12444658 18.11559178 12.44085014 22.39678597 10 27 C9.67 27 9.34 27 9 27 C8.83380723 24.09162645 8.91176283 22.20761686 10.0625 19.5 C11.21716356 16.42089717 10.9159433 15.13373495 10 12 C8.50576387 9.60040059 8.50576387 9.60040059 6.625 7.375 C5.71621094 6.24191406 5.71621094 6.24191406 4.7890625 5.0859375 C3.25845922 3.30134765 1.69221213 1.62992211 0 0 Z " fill="#B6D0EB" transform="translate(173,114)"/>
<path d="M0 0 C3.41652412 4.30779128 4.15343241 7.41055912 4.1875 12.875 C4.20167969 13.90367187 4.21585937 14.93234375 4.23046875 15.9921875 C3.99581369 19.05463488 3.29184572 21.23248861 2 24 C1.34 23.01 0.68 22.02 0 21 C-0.99 20.34 -1.98 19.68 -3 19 C-2.01 18.67 -1.02 18.34 0 18 C0.73030908 11.78675502 1.23180249 6.15901243 0 0 Z " fill="#C1DFF8" transform="translate(256,209)"/>
<path d="M0 0 C0.75601501 -0.00287018 1.51203003 -0.00574036 2.29095459 -0.00869751 C3.89140572 -0.01073843 5.49188178 -0.00520654 7.09228516 0.00732422 C9.52434239 0.02328958 11.95471526 0.00752413 14.38671875 -0.01171875 C15.94531613 -0.00973458 17.50391247 -0.00588731 19.0625 0 C20.14256317 -0.00910904 20.14256317 -0.00910904 21.2444458 -0.0184021 C26.35705885 0.05161429 29.79876997 1.17587039 34.296875 3.3984375 C33.966875 4.3884375 33.636875 5.3784375 33.296875 6.3984375 C32.183125 5.686875 32.183125 5.686875 31.046875 4.9609375 C26.55856705 2.41076253 22.91311063 2.27064071 17.7734375 2.265625 C15.87078125 2.26369141 15.87078125 2.26369141 13.9296875 2.26171875 C12.94210449 2.26486084 12.94210449 2.26486084 11.93457031 2.26806641 C9.93555287 2.273401 7.93651591 2.26759821 5.9375 2.26171875 C4.66648438 2.26300781 3.39546875 2.26429687 2.0859375 2.265625 C0.34884521 2.26731689 0.34884521 2.26731689 -1.42333984 2.26904297 C-4.5996128 2.39435372 -7.58395044 2.8029856 -10.703125 3.3984375 C-7.99570703 -0.52251634 -4.3337291 -0.03614338 0 0 Z " fill="#297ED4" transform="translate(177.703125,105.6015625)"/>
<path d="M0 0 C0.33 0.66 0.66 1.32 1 2 C0.13248611 4.30942263 -0.78806769 6.51151135 -1.8125 8.75 C-3.77328166 13.10524209 -5.56544859 17.43742675 -7 22 C-7.33 22 -7.66 22 -8 22 C-8.74641548 14.38656208 -6.52088679 7.75415184 -3 1 C-2.01 0.67 -1.02 0.34 0 0 Z " fill="#B5CBE7" transform="translate(147,220)"/>
<path d="M0 0 C2.70329311 3.29590691 4.41900085 6.75613519 6.1875 10.625 C6.71730469 11.77226562 7.24710938 12.91953125 7.79296875 14.1015625 C9 17 9 17 9 19 C5.05860922 17.33248852 2.2107188 14.77289351 -1 12 C-0.34 11.67 0.32 11.34 1 11 C1.08912219 7.16774573 0.87867729 3.73437848 0 0 Z " fill="#398AD6" transform="translate(221,202)"/>
<path d="M0 0 C0.33 0.66 0.66 1.32 1 2 C4.02934491 2.65772428 4.02934491 2.65772428 7 3 C4 4 4 4 0.9375 4.6875 C-2.30356016 5.74130634 -2.30356016 5.74130634 -3.375 9.125 C-3.58125 10.07375 -3.7875 11.0225 -4 12 C-4.66 12 -5.32 12 -6 12 C-6.33 12.99 -6.66 13.98 -7 15 C-7.66 15 -8.32 15 -9 15 C-7.30502225 9.06757789 -4.62176373 4.15958735 0 0 Z " fill="#C6DFF7" transform="translate(166,110)"/>
<path d="M0 0 C0.66 0 1.32 0 2 0 C2.99 2.97 3.98 5.94 5 9 C3.35 9.66 1.7 10.32 0 11 C0 10.34 0 9.68 0 9 C-0.99 9 -1.98 9 -3 9 C-2.44271087 5.65626525 -1.64826111 2.96687001 0 0 Z " fill="#2887E4" transform="translate(187,130)"/>
<path d="M0 0 C0.33 0.66 0.66 1.32 1 2 C-11.25 14.25 -11.25 14.25 -17 15 C-13.59049601 11.49094845 -10.05958699 8.31826195 -6.25 5.25 C-3.02987225 2.73321911 -3.02987225 2.73321911 0 0 Z " fill="#CDECFA" transform="translate(174,198)"/>
<path d="M0 0 C1.05148279 3.69612131 0.94199684 6.23201262 0 10 C-1.9056492 13.0853368 -4.39785678 15.48758585 -7 18 C-5.06375702 11.79522136 -2.74390859 5.89174281 0 0 Z " fill="#BDE0FA" transform="translate(156,125)"/>
<path d="M0 0 C0.66 0.66 1.32 1.32 2 2 C1.67 2.66 1.34 3.32 1 4 C1.66 4.33 2.32 4.66 3 5 C2.02433888 6.16959987 1.044375 7.33561177 0.0625 8.5 C-0.48277344 9.1496875 -1.02804688 9.799375 -1.58984375 10.46875 C-2.05519531 10.9740625 -2.52054688 11.479375 -3 12 C-3.33 12 -3.66 12 -4 12 C-4.33 9.69 -4.66 7.38 -5 5 C-3.68 5.33 -2.36 5.66 -1 6 C-1.309375 5.071875 -1.309375 5.071875 -1.625 4.125 C-1.810625 3.073125 -1.810625 3.073125 -2 2 C-1.34 1.34 -0.68 0.68 0 0 Z " fill="#2087EC" transform="translate(164,105)"/>
<path d="M0 0 C-0.33 1.65 -0.66 3.3 -1 5 C-4.37705625 4.46274105 -7.696686 3.88935377 -11 3 C-11 2.34 -11 1.68 -11 1 C-7.26562152 0.12132271 -3.83225427 -0.08912219 0 0 Z " fill="#F7FBFA" transform="translate(178,109)"/>
<path d="M0 0 C0.66 0.33 1.32 0.66 2 1 C2.46557346 4.18141867 2.50963377 6.25343123 0.6640625 8.95703125 C-0.84258024 10.6935608 -2.37936464 12.369718 -4 14 C-4.33 13.34 -4.66 12.68 -5 12 C-4.26821134 9.92803369 -3.44100997 7.8891448 -2.5625 5.875 C-2.08941406 4.77929688 -1.61632812 3.68359375 -1.12890625 2.5546875 C-0.75636719 1.71164063 -0.38382813 0.86859375 0 0 Z " fill="#C8E8FA" transform="translate(148,143)"/>
<path d="M0 0 C1.60875 0.99 1.60875 0.99 3.25 2 C8.68068634 4.7739477 14.04456946 4.35732583 20 4 C19.67 4.66 19.34 5.32 19 6 C13.39 6 7.78 6 2 6 C2 4.68 2 3.36 2 2 C1.34 2 0.68 2 0 2 C0 1.34 0 0.68 0 0 Z " fill="#3188DC" transform="translate(213,247)"/>
<path d="M0 0 C0.33 0.99 0.66 1.98 1 3 C-0.01320312 3.48919922 -0.01320312 3.48919922 -1.046875 3.98828125 C-2.38492188 4.64376953 -2.38492188 4.64376953 -3.75 5.3125 C-4.63171875 5.74175781 -5.5134375 6.17101562 -6.421875 6.61328125 C-9.02460046 7.91059087 -9.02460046 7.91059087 -11.140625 9.73046875 C-11.75421875 10.14941406 -12.3678125 10.56835938 -13 11 C-13.99 10.67 -14.98 10.34 -16 10 C-8.08 5.05 -8.08 5.05 0 0 Z " fill="#3389DB" transform="translate(249,240)"/>
<path d="M0 0 C3.81684226 1.55500981 6.19195732 4.03595495 9 7 C6.69 7.33 4.38 7.66 2 8 C1.67 7.34 1.34 6.68 1 6 C1.66 5.34 2.32 4.68 3 4 C1.68 4 0.36 4 -1 4 C-1.66 3.67 -2.32 3.34 -3 3 C-2.01 2.01 -1.02 1.02 0 0 Z " fill="#2883E3" transform="translate(187,226)"/>
<path d="M0 0 C0.99 0.33 1.98 0.66 3 1 C3.9140625 3.03125 3.9140625 3.03125 4.625 5.5 C5.34694531 8.51588079 5.34694531 8.51588079 7 11 C7.04063832 12.66617115 7.042721 14.33388095 7 16 C4.67738148 13.67738148 3.73123569 11.54859789 2.375 8.5625 C1.92898437 7.59441406 1.48296875 6.62632812 1.0234375 5.62890625 C0 3 0 3 0 0 Z " fill="#C9EDFC" transform="translate(209,173)"/>
<path d="M0 0 C0.66 0.33 1.32 0.66 2 1 C0.40109514 6.19644079 -1.74138003 11.06612142 -4 16 C-4.33 16 -4.66 16 -5 16 C-5.08886184 12.80097361 -4.91058531 10.07322544 -4 7 C-3.34 7 -2.68 7 -2 7 C-1.855625 6.030625 -1.71125 5.06125 -1.5625 4.0625 C-1 1 -1 1 0 0 Z " fill="#BCE1FA" transform="translate(180,140)"/>
<path d="M0 0 C2.60526888 2.60526888 3.34134224 5.17939234 4.625 8.625 C5.29402344 10.40777344 5.29402344 10.40777344 5.9765625 12.2265625 C6.31429687 13.14179688 6.65203125 14.05703125 7 15 C6.34 15 5.68 15 5 15 C1.65405342 9.81917949 0.43173504 6.15222436 0 0 Z " fill="#C3E4F9" transform="translate(240,173)"/>
<path d="M0 0 C0.33 0 0.66 0 1 0 C1.05410687 1.77049689 1.09284119 3.54146849 1.125 5.3125 C1.14820313 6.29863281 1.17140625 7.28476563 1.1953125 8.30078125 C1 11 1 11 -1 14 C-1.66 13.67 -2.32 13.34 -3 13 C-2.69240822 11.02006459 -2.3787932 9.04106401 -2.0625 7.0625 C-1.88847656 5.96035156 -1.71445312 4.85820312 -1.53515625 3.72265625 C-1 1 -1 1 0 0 Z " fill="#338CE7" transform="translate(261,218)"/>
<path d="M0 0 C3.62107449 4.44404597 5.33060893 8.21434368 5 14 C4.01 13.34 3.02 12.68 2 12 C1.375 8.6875 1.375 8.6875 1 5 C0.68033861 3.33065717 0.35268934 1.6626783 0 0 Z " fill="#2988E4" transform="translate(221,202)"/>
<path d="M0 0 C0.66 0 1.32 0 2 0 C2.33 0.99 2.66 1.98 3 3 C3.66 3.33 4.32 3.66 5 4 C6.61287128 7.81995829 7.20681069 10.05432816 6 14 C4.99515796 12.04414675 3.99626195 10.08523763 3 8.125 C2.1646875 6.48917969 2.1646875 6.48917969 1.3125 4.8203125 C0 2 0 2 0 0 Z " fill="#BEE2FA" transform="translate(218,194)"/>
<path d="M0 0 C1.40403242 4.21209727 -0.16298908 6.05382839 -2 10 C-2.67276716 11.6642135 -3.34206835 13.32986582 -4 15 C-4.66 15 -5.32 15 -6 15 C-4.36041242 9.76727367 -2.61047965 4.84803364 0 0 Z " fill="#3489DB" transform="translate(172,162)"/>
<path d="M0 0 C1.305239 3.91571701 0.32239848 5.03892997 -1.4375 8.6875 C-1.91058594 9.68136719 -2.38367188 10.67523438 -2.87109375 11.69921875 C-3.42990234 12.83810547 -3.42990234 12.83810547 -4 14 C-4.66 12.68 -5.32 11.36 -6 10 C-5.525625 9.4225 -5.05125 8.845 -4.5625 8.25 C-3.0515133 6.07417916 -2.45963849 4.57397552 -2 2 C-1.34 2 -0.68 2 0 2 C0 1.34 0 0.68 0 0 Z " fill="#2884E0" transform="translate(149,138)"/>
<path d="M0 0 C0.5775 0.226875 1.155 0.45375 1.75 0.6875 C-0.61797991 3.30474095 -3.14600354 5.01611729 -6.25 6.6875 C-6.91 6.6875 -7.57 6.6875 -8.25 6.6875 C-6.65594781 2.8352072 -4.57967475 -0.63606594 0 0 Z " fill="#F5F8F6" transform="translate(174.25,202.3125)"/>
<path d="M0 0 C0.33 0.99 0.66 1.98 1 3 C0.01 4.485 0.01 4.485 -1 6 C-0.67 6.99 -0.34 7.98 0 9 C-0.33 9.66 -0.66 10.32 -1 11 C-1.66 11 -2.32 11 -3 11 C-2.8864371 9.35333797 -2.75882619 7.70763918 -2.625 6.0625 C-2.55539063 5.14597656 -2.48578125 4.22945312 -2.4140625 3.28515625 C-2.27742187 2.53105469 -2.14078125 1.77695313 -2 1 C-1.34 0.67 -0.68 0.34 0 0 Z " fill="#F2F8F9" transform="translate(131,187)"/>
<path d="M0 0 C-5.75 5 -5.75 5 -8 5 C-7.67 3.35 -7.34 1.7 -7 0 C-3.86650268 -1.04449911 -3.01031744 -0.93423645 0 0 Z " fill="#C0E1F9" transform="translate(165,245)"/>
<path d="M0 0 C0.99 0.66 1.98 1.32 3 2 C0.03 4.475 0.03 4.475 -3 7 C-3.66 6.01 -4.32 5.02 -5 4 C-3.35 2.68 -1.7 1.36 0 0 Z " fill="#8BAEE3" transform="translate(193,221)"/>
<path d="M0 0 C0.66 0.66 1.32 1.32 2 2 C0.04434742 2.38873828 -1.91466504 2.76060833 -3.875 3.125 C-4.96554688 3.33382812 -6.05609375 3.54265625 -7.1796875 3.7578125 C-8.57574219 3.87769531 -8.57574219 3.87769531 -10 4 C-10.66 3.34 -11.32 2.68 -12 2 C-10.04434742 1.61126172 -8.08533496 1.23939167 -6.125 0.875 C-5.03445312 0.66617188 -3.94390625 0.45734375 -2.8203125 0.2421875 C-1.88960937 0.16226563 -0.95890625 0.08234375 0 0 Z " fill="#98B7DB" transform="translate(217,211)"/>
<path d="M0 0 C0.33 1.32 0.66 2.64 1 4 C1.66 4.33 2.32 4.66 3 5 C1.02 6.32 -0.96 7.64 -3 9 C-2.01 6.03 -1.02 3.06 0 0 Z " fill="#458DD3" transform="translate(148,213)"/>
<path d="M0 0 C2.97 0.33 5.94 0.66 9 1 C9.33 2.32 9.66 3.64 10 5 C5.05 3.02 5.05 3.02 0 1 C0 0.67 0 0.34 0 0 Z " fill="#3C8CDD" transform="translate(202,107)"/>
<path d="M0 0 C3.3 0.66 6.6 1.32 10 2 C10 2.33 10 2.66 10 3 C6.37 3 2.74 3 -1 3 C-0.67 2.01 -0.34 1.02 0 0 Z " fill="#C1D2EC" transform="translate(247,227)"/>
<path d="M0 0 C2.50298434 2.93828597 3.46930939 5.17902761 4 9 C3.34 9 2.68 9 2 9 C0.14223235 5.86501708 -0.20140476 3.62528568 0 0 Z " fill="#BEE6FA" transform="translate(236,164)"/>
<path d="M0 0 C1.39195915 4.17587745 -0.17676781 6.13474776 -2 10 C-2.66 10 -3.32 10 -4 10 C-2.8905928 6.51329166 -1.73662334 3.22515763 0 0 Z " fill="#C3EAFA" transform="translate(140,162)"/>
</svg>
